# WaveFront *.obj file (generated by Autodesk ATF)

mtllib michelle face.mtl

g Solid2

v 0.000000 -6.200000 -0.100000
v 0.000000 -6.200000 0.000000
v 0.000000 0.000000 -0.100000
v 0.000000 0.000000 0.000000
v 5.716667 -6.200000 -0.100000
v 5.716667 -6.200000 0.000000
v 5.716667 0.000000 -0.100000
v 5.716667 0.000000 0.000000
vt 0.000000 0.000000 0.000000
vt 0.897250 0.000000 0.000000
vt 0.897250 0.014472 0.000000
vt 0.000000 0.014472 0.000000
vt 0.000000 0.000000 0.000000
vt 0.827303 0.000000 0.000000
vt 0.827303 0.014472 0.000000
vt 0.000000 0.014472 0.000000
vt 0.000000 0.000000 0.000000
vt 0.897250 0.000000 0.000000
vt 0.897250 0.014472 0.000000
vt 0.000000 0.014472 0.000000
vt 0.000000 0.000000 0.000000
vt 0.827303 0.000000 0.000000
vt 0.827303 0.014472 0.000000
vt 0.000000 0.014472 0.000000
vt -0.413652 -0.448625 0.000000
vt 0.413652 -0.448625 0.000000
vt 0.413652 0.448625 0.000000
vt -0.413652 0.448625 0.000000
vt -0.413652 -0.448625 0.000000
vt 0.413652 -0.448625 0.000000
vt 0.413652 0.448625 0.000000
vt -0.413652 0.448625 0.000000
vn 2.540000 0.000000 0.000000
vn 2.540000 0.000000 0.000000
vn 2.540000 0.000000 0.000000
vn 2.540000 0.000000 0.000000
vn 0.000000 2.540000 0.000000
vn 0.000000 2.540000 0.000000
vn 0.000000 2.540000 0.000000
vn 0.000000 2.540000 0.000000
vn -2.540000 0.000000 0.000000
vn -2.540000 0.000000 0.000000
vn -2.540000 0.000000 0.000000
vn -2.540000 0.000000 0.000000
vn 0.000000 -2.540000 0.000000
vn 0.000000 -2.540000 0.000000
vn 0.000000 -2.540000 0.000000
vn 0.000000 -2.540000 0.000000
vn 0.000000 0.000000 2.540000
vn 0.000000 0.000000 2.540000
vn 0.000000 0.000000 2.540000
vn 0.000000 0.000000 2.540000
vn 0.000000 0.000000 -2.540000
vn 0.000000 0.000000 -2.540000
vn 0.000000 0.000000 -2.540000
vn 0.000000 0.000000 -2.540000
usemtl 255,255,255
f 8/1/1 6/2/2 7/4/4
f 7/4/4 6/2/2 5/3/3
f 4/5/5 8/6/6 3/8/8
f 3/8/8 8/6/6 7/7/7
f 2/9/9 4/10/10 1/12/12
f 1/12/12 4/10/10 3/11/11
f 6/13/13 2/14/14 5/16/16
f 5/16/16 2/14/14 1/15/15
f 2/17/17 6/18/18 4/20/20
f 4/20/20 6/18/18 8/19/19
f 5/21/21 1/22/22 7/24/24
f 7/24/24 1/22/22 3/23/23
# 8 vertices
# 24 texture params
# 24 normals
# 12 facets

# 1 groups
